# xmcd CD database file
#
# Track frame offsets:
#	150
#	29550
#	78600
#	139500
#	172125
#	236850
#	270900
#
# Disc length: 4200 seconds
#
# Revision: 0
# Processed by: cddbd v1.5PL3 Copyright (c) Steve Scherf et al.
# Submitted via: CDex 1.51
#
DISCID=5d106607
DTITLE=BeebleBrox - RealBrox (Disk 1)
DYEAR=2002
DGENRE=Jazz
TTITLE0=Birdie Nam-Nam
TTITLE1=Belonging
TTITLE2=Homer Simpson
TTITLE3=Half Man - Half Brocoli
TTITLE4=Baiao Do Banana - Bloomingtoon
TTITLE5=Trojan Horse
TTITLE6=Gateway
EXTD=YEAR: 2002
EXTT0=
EXTT1=
EXTT2=
EXTT3=
EXTT4=
EXTT5=
EXTT6=
PLAYORDER=
